<svg width="24" height="24" viewBox="0 0 24 24" fill="none" xmlns="http://www.w3.org/2000/svg">
  <!-- Main vertical line of K -->
  <rect x="2" y="2" width="2" height="20" fill="black"/>
  
  <!-- Top diagonal line -->
  <rect x="4" y="2" width="2" height="2" fill="black"/>
  <rect x="5" y="3" width="2" height="2" fill="black"/>
  <rect x="6" y="4" width="2" height="2" fill="black"/>
  <rect x="7" y="5" width="2" height="2" fill="black"/>
  <rect x="8" y="6" width="2" height="2" fill="black"/>
  
  <!-- Middle diagonal line -->
  <rect x="4" y="10" width="2" height="2" fill="black"/>
  <rect x="5" y="11" width="2" height="2" fill="black"/>
  <rect x="6" y="12" width="2" height="2" fill="black"/>
  <rect x="7" y="13" width="2" height="2" fill="black"/>
  
  <!-- Bottom diagonal line -->
  <rect x="4" y="16" width="2" height="2" fill="black"/>
  <rect x="5" y="17" width="2" height="2" fill="black"/>
  <rect x="6" y="18" width="2" height="2" fill="black"/>
  <rect x="7" y="19" width="2" height="2" fill="black"/>
  
  <!-- Accent square -->
  <rect x="15" y="8" width="4" height="4" fill="black"/>
</svg>